<?xml version="1.0" standalone="no"?><!DOCTYPE svg PUBLIC "-//W3C//DTD SVG 1.1//EN" "http://www.w3.org/Graphics/SVG/1.1/DTD/svg11.dtd"><svg t="1584082598862" class="icon" viewBox="0 0 1024 1024" version="1.1" xmlns="http://www.w3.org/2000/svg" p-id="851" xmlns:xlink="http://www.w3.org/1999/xlink" width="200" height="200"><defs><style type="text/css"></style></defs><path d="M838 313.66H284.97c-41.28 0-74.74 33.46-74.74 74.74v333.86c0 41.28 33.47 74.74 74.74 74.74H838c41.28 0 74.74-33.47 74.74-74.74V388.41c0-41.28-33.46-74.75-74.74-74.75z m-70.54 311.71c0 16.51-13.39 29.9-29.9 29.9H455.44c-55.19 0-99.94-44.74-99.94-99.94s44.74-99.94 99.94-99.94h282.12c16.51 0 29.9 13.39 29.9 29.9v140.08z" fill="#F4DFA9" opacity=".3" p-id="852"></path><path d="M346.48 575.91c-16.68-14.45-27.25-35.78-27.25-59.53 0-43.42 35.33-78.75 78.77-78.75h152.98c11.7 0 21.17-9.49 21.17-21.19 0-11.7-9.47-21.19-21.17-21.19H398c-66.78 0-121.11 54.33-121.11 121.13l69.59 59.53z" fill="#F4DFA9" p-id="853"></path><path d="M760.22 752.71H207.16c-52.88 0-95.9-43.04-95.9-95.93V322.92c0-52.89 43.02-95.93 95.9-95.93h553.06c52.88 0 95.9 43.04 95.9 95.93v333.85c-0.01 52.9-43.03 95.94-95.9 95.94zM207.16 269.37c-29.51 0-53.56 24.03-53.56 53.56v333.85c0 29.53 24.05 53.56 53.56 53.56h553.06c29.51 0 53.56-24.03 53.56-53.56V322.92c0-29.53-24.05-53.56-53.56-53.56H207.16z" fill="#00AB95" p-id="854"></path><path d="M659.76 610.98h-282.1c-66.78 0-121.11-54.33-121.11-121.13s54.33-121.13 121.11-121.13H530.6c11.7 0 21.17 9.49 21.17 21.19s-9.47 21.19-21.17 21.19H377.65c-43.44 0-78.77 35.33-78.77 78.75s35.33 78.75 78.77 78.75h282.1c4.82 0 8.73-3.91 8.73-8.71V419.81c0-4.8-3.91-8.71-8.73-8.71h-29.19c-11.7 0-21.17-9.49-21.17-21.19s9.47-21.19 21.17-21.19h29.19c28.15 0 51.07 22.92 51.07 51.08v140.08c0.01 28.18-22.91 51.1-51.06 51.1z" fill="#00AB95" p-id="855"></path></svg>